<svg version="1.1" xmlns="http://www.w3.org/2000/svg" viewBox="0 0 1029.5 702" width="1029.5" height="702" filter="invert(93%) hue-rotate(180deg)">
  <!-- svg-source:excalidraw -->
  
  <defs>
    <style class="style-fonts">
      @font-face {
        font-family: "Virgil";
        src: url("https://excalidraw.com/Virgil.woff2");
      }
      @font-face {
        font-family: "Cascadia";
        src: url("https://excalidraw.com/Cascadia.woff2");
      }
      @font-face {
        font-family: "Assistant";
        src: url("https://excalidraw.com/Assistant-Regular.woff2");
      }
    </style>
    
  </defs>
  <rect x="0" y="0" width="1029.5" height="702" fill="#ffffff"></rect><g stroke-linecap="round" transform="translate(355.5 600) rotate(0 98.5 46)"><path d="M23 0 C61.25 -2.15, 96.96 1.67, 174 0 M23 0 C54.03 -0.56, 83.94 -1.34, 174 0 M174 0 C189.51 0.61, 197.93 5.98, 197 23 M174 0 C190.53 0.79, 195.3 6.16, 197 23 M197 23 C195.59 38.93, 198.55 50.61, 197 69 M197 23 C197.48 34.95, 196.95 46.64, 197 69 M197 69 C195.83 84.46, 190.03 92.71, 174 92 M197 69 C195.23 82.14, 189.8 91.66, 174 92 M174 92 C140.3 89.08, 110.47 91.08, 23 92 M174 92 C114.41 91.18, 53.06 92.6, 23 92 M23 92 C6.21 92.8, -1.88 82.57, 0 69 M23 92 C8.66 92.11, 1 82.92, 0 69 M0 69 C0.22 58.33, -2.19 49.18, 0 23 M0 69 C-0.27 57.56, -0.55 47.24, 0 23 M0 23 C-0.78 6.26, 7.64 0.7, 23 0 M0 23 C0.53 7.48, 7.73 2.13, 23 0" stroke="#1e1e1e" stroke-width="2" fill="none"></path></g><g transform="translate(411.93004608154297 633.5) rotate(0 42.06995391845703 12.5)"><text x="42.06995391845703" y="0" font-family="Virgil, Segoe UI Emoji" font-size="20px" fill="#1e1e1e" text-anchor="middle" style="white-space: pre;" direction="ltr" dominant-baseline="text-before-edge">Wallet A</text></g><g stroke-linecap="round" transform="translate(581 597) rotate(0 98.5 46)"><path d="M23 0 C63.77 1.49, 101.73 1.55, 174 0 M23 0 C82.18 -1.78, 141.31 -1.03, 174 0 M174 0 C188.41 -1.46, 195.96 9.06, 197 23 M174 0 C187.41 -1.32, 196.16 7.91, 197 23 M197 23 C196.87 38.14, 197.15 51.25, 197 69 M197 23 C196.88 33.86, 196.62 44.48, 197 69 M197 69 C196.11 83.88, 189.6 93, 174 92 M197 69 C194.8 83.58, 187.15 93.93, 174 92 M174 92 C130.43 94.16, 88.5 91.04, 23 92 M174 92 C124.8 93.48, 76.52 93.87, 23 92 M23 92 C6.14 92.47, -0.77 85.35, 0 69 M23 92 C5.72 89.71, 1.38 84.14, 0 69 M0 69 C1.2 54.51, 1.31 38.7, 0 23 M0 69 C0.12 58.8, 0.36 48.53, 0 23 M0 23 C-0.09 9.49, 7.09 0.38, 23 0 M0 23 C1.04 6.17, 5.7 2.26, 23 0" stroke="#1e1e1e" stroke-width="2" fill="none"></path></g><g transform="translate(636.7200469970703 630.5) rotate(0 42.77995300292969 12.5)"><text x="42.77995300292969" y="0" font-family="Virgil, Segoe UI Emoji" font-size="20px" fill="#1e1e1e" text-anchor="middle" style="white-space: pre;" direction="ltr" dominant-baseline="text-before-edge">Wallet B</text></g><g stroke-linecap="round" transform="translate(521 145) rotate(0 98.5 46)"><path d="M23 0 C52.81 0.58, 85.92 -1.98, 174 0 M23 0 C71.17 0.17, 121.49 -0.14, 174 0 M174 0 C188.18 -0.73, 197.21 7.9, 197 23 M174 0 C187.22 0.6, 197.34 8.58, 197 23 M197 23 C198.6 38.52, 195.87 52.59, 197 69 M197 23 C196.37 33.38, 197.1 42.54, 197 69 M197 69 C196.34 82.44, 191.01 91.72, 174 92 M197 69 C198.13 85.14, 188.93 93.88, 174 92 M174 92 C120.81 94.28, 69.07 92.46, 23 92 M174 92 C118.25 90.46, 62.55 90, 23 92 M23 92 C5.67 93.2, -0.16 85.09, 0 69 M23 92 C6.85 93.93, 1.19 85.53, 0 69 M0 69 C-0.03 51.24, 0.14 36.8, 0 23 M0 69 C0.63 53.12, -0.09 38.27, 0 23 M0 23 C-1.3 5.96, 9.63 -1.6, 23 0 M0 23 C-1.99 9.24, 5.47 1.42, 23 0" stroke="#1e1e1e" stroke-width="2" fill="none"></path></g><g transform="translate(553.0200729370117 178.5) rotate(0 66.47992706298828 12.5)"><text x="66.47992706298828" y="0" font-family="Virgil, Segoe UI Emoji" font-size="20px" fill="#1e1e1e" text-anchor="middle" style="white-space: pre;" direction="ltr" dominant-baseline="text-before-edge">Dealer wallet</text></g><g stroke-linecap="round" transform="translate(10 108) rotate(0 98.5 46)"><path d="M23 0 C71.29 -1.28, 116.37 -1.4, 174 0 M23 0 C78.45 0.97, 134.75 -0.05, 174 0 M174 0 C189.86 0.29, 197.79 8.24, 197 23 M174 0 C188.83 -1.31, 198.96 8.14, 197 23 M197 23 C195.13 33.55, 196.4 46.14, 197 69 M197 23 C195.61 39.94, 196.42 55.69, 197 69 M197 69 C197.7 83.98, 190.97 92.93, 174 92 M197 69 C195.29 84.91, 188.38 94.19, 174 92 M174 92 C131.19 91.54, 87.14 92.29, 23 92 M174 92 C121.64 90.41, 68.46 90.14, 23 92 M23 92 C9.35 93.04, 1.04 85.48, 0 69 M23 92 C8.55 90.37, 0.16 82.82, 0 69 M0 69 C1.07 54.39, 1.66 39.39, 0 23 M0 69 C-1.06 55.31, -1.01 38.79, 0 23 M0 23 C1.37 5.75, 8.9 1.77, 23 0 M0 23 C-1.88 6.6, 7.68 0.75, 23 0" stroke="#1e1e1e" stroke-width="2" fill="none"></path></g><g transform="translate(51.75006866455078 129) rotate(0 56.74993133544922 25)"><text x="56.74993133544922" y="0" font-family="Virgil, Segoe UI Emoji" font-size="20px" fill="#1e1e1e" text-anchor="middle" style="white-space: pre;" direction="ltr" dominant-baseline="text-before-edge">Game logic </text><text x="56.74993133544922" y="25" font-family="Virgil, Segoe UI Emoji" font-size="20px" fill="#1e1e1e" text-anchor="middle" style="white-space: pre;" direction="ltr" dominant-baseline="text-before-edge">contract</text></g><g stroke-linecap="round" transform="translate(507.5 10) rotate(0 256 159.5)"><path d="M32 0 C207.54 -1.41, 384.36 -0.78, 480 0 M32 0 C169.27 0.07, 306.49 0.27, 480 0 M480 0 C499.51 1.16, 512.6 10.85, 512 32 M480 0 C499.78 1.76, 511.63 11.09, 512 32 M512 32 C509.61 119.81, 509.81 208.64, 512 287 M512 32 C510.61 89.69, 510.38 146.4, 512 287 M512 287 C513.75 307.7, 500.5 318.36, 480 319 M512 287 C510.31 308.96, 501.87 318.45, 480 319 M480 319 C390.43 318.67, 298.91 318.19, 32 319 M480 319 C369.42 319.95, 258.66 319.83, 32 319 M32 319 C10.72 319.38, 1.65 308.56, 0 287 M32 319 C9.8 317.42, -1.97 306.16, 0 287 M0 287 C2.95 220.92, 1.47 157.01, 0 32 M0 287 C0.36 208.84, -0.72 130.92, 0 32 M0 32 C-1.49 9.8, 10.02 0.57, 32 0 M0 32 C0.63 12.82, 10.45 0.07, 32 0" stroke="#1e1e1e" stroke-width="2" fill="none"></path></g><g transform="translate(575.5 52) rotate(0 47.779945373535156 12.5)"><text x="0" y="0" font-family="Virgil, Segoe UI Emoji" font-size="20px" fill="#1e1e1e" text-anchor="start" style="white-space: pre;" direction="ltr" dominant-baseline="text-before-edge">Game App</text></g><g stroke-linecap="round" transform="translate(798 63) rotate(0 98.5 46)"><path d="M23 0 C56.71 2.35, 90.87 2.23, 174 0 M23 0 C82.37 -0.48, 143.11 -1.31, 174 0 M174 0 C190.81 0.44, 197.69 8.44, 197 23 M174 0 C190.04 -0.68, 194.98 9.1, 197 23 M197 23 C196.43 41.88, 198.63 61.14, 197 69 M197 23 C198.14 40.32, 197.36 57.34, 197 69 M197 69 C195.92 84.54, 189.02 90.5, 174 92 M197 69 C196.21 84.23, 188.46 89.86, 174 92 M174 92 C117.14 90.03, 55.75 90.26, 23 92 M174 92 C131.72 91.49, 87.68 91.03, 23 92 M23 92 C8.73 91.05, -0.62 84.97, 0 69 M23 92 C5.56 92.5, -0.18 84.82, 0 69 M0 69 C-0.61 53.03, -0.7 36.41, 0 23 M0 69 C0.29 54.61, -0.67 39.65, 0 23 M0 23 C1.9 9.44, 7.23 1.41, 23 0 M0 23 C0.37 6.64, 7.7 0.74, 23 0" stroke="#1e1e1e" stroke-width="2" fill="none"></path></g><g transform="translate(856.8400344848633 96.5) rotate(0 39.65996551513672 12.5)"><text x="39.65996551513672" y="0" font-family="Virgil, Segoe UI Emoji" font-size="20px" fill="#1e1e1e" text-anchor="middle" style="white-space: pre;" direction="ltr" dominant-baseline="text-before-edge">Backend</text></g><g stroke-linecap="round" transform="translate(799 215) rotate(0 98.5 46)"><path d="M23 0 C54.36 1.57, 84.01 2.2, 174 0 M23 0 C71.92 -0.88, 119.35 0.04, 174 0 M174 0 C191.26 -0.44, 196.87 7.2, 197 23 M174 0 C190.08 1.99, 198.92 9.51, 197 23 M197 23 C196.9 40.72, 195.96 57.51, 197 69 M197 23 C196.58 37.23, 196.55 50.61, 197 69 M197 69 C198.76 86.1, 187.89 93.75, 174 92 M197 69 C195.99 83.15, 188.59 91.62, 174 92 M174 92 C114.17 91.55, 52.93 93.91, 23 92 M174 92 C134.97 92.7, 97.7 92.69, 23 92 M23 92 C8.82 91.98, 1.71 83.72, 0 69 M23 92 C8.22 91.19, 0.36 84.62, 0 69 M0 69 C0.39 53.14, -0.79 41.5, 0 23 M0 69 C0.26 50.68, 0.11 33.58, 0 23 M0 23 C-1.62 7.37, 7.12 1.34, 23 0 M0 23 C0.2 9.41, 6.31 -1.63, 23 0" stroke="#1e1e1e" stroke-width="2" fill="none"></path></g><g transform="translate(855.7700347900391 248.5) rotate(0 41.72996520996094 12.5)"><text x="41.72996520996094" y="0" font-family="Virgil, Segoe UI Emoji" font-size="20px" fill="#1e1e1e" text-anchor="middle" style="white-space: pre;" direction="ltr" dominant-baseline="text-before-edge">Frontend</text></g><g mask="url(#mask-h-51WJZMgcpbEW8Zgc1G1)" stroke-linecap="round"><g transform="translate(583.5 573) rotate(0 39 -101.5)"><path d="M-0.82 -0.16 C12.19 -34.04, 64.44 -169.11, 77.47 -202.82 M0.95 -1.29 C13.8 -34.99, 63.69 -167.33, 76.25 -201.19" stroke="#1e1e1e" stroke-width="2" fill="none"></path></g><g transform="translate(583.5 573) rotate(0 39 -101.5)"><path d="M76.02 -176.19 C75.71 -183.4, 76.33 -189.9, 76.25 -201.19 M76.02 -176.19 C76.7 -184.98, 75.04 -193.13, 76.25 -201.19" stroke="#1e1e1e" stroke-width="2" fill="none"></path></g><g transform="translate(583.5 573) rotate(0 39 -101.5)"><path d="M60 -182.19 C63.78 -187.77, 68.45 -192.75, 76.25 -201.19 M60 -182.19 C66.3 -188.78, 70.2 -194.85, 76.25 -201.19" stroke="#1e1e1e" stroke-width="2" fill="none"></path></g></g><mask id="mask-h-51WJZMgcpbEW8Zgc1G1"><rect x="0" y="0" fill="#fff" width="761.5" height="876"></rect><rect x="564.1500625610352" y="459" fill="#000" width="116.69987487792969" height="25" opacity="1"></rect></mask><g transform="translate(564.1500625610352 459) rotate(0 57.67688757479186 12.510006508231157)"><text x="58.349937438964844" y="0" font-family="Virgil, Segoe UI Emoji" font-size="20px" fill="#1e1e1e" text-anchor="middle" style="white-space: pre;" direction="ltr" dominant-baseline="text-before-edge">matchmaking</text></g><g stroke-linecap="round"><g transform="translate(432.5 233) rotate(0 -87 -4)"><path d="M-0.74 -0.43 C-29.68 -1.97, -144.29 -6.86, -172.98 -8.12 M1.07 -1.7 C-27.99 -2.53, -144.37 -5.81, -173.39 -6.64" stroke="#1e1e1e" stroke-width="2" fill="none"></path></g><g transform="translate(432.5 233) rotate(0 -87 -4)"><path d="M-149.66 -14.53 C-158.65 -10.2, -166.48 -7.23, -173.39 -6.64 M-149.66 -14.53 C-156.75 -12.94, -163.25 -10.94, -173.39 -6.64" stroke="#1e1e1e" stroke-width="2" fill="none"></path></g><g transform="translate(432.5 233) rotate(0 -87 -4)"><path d="M-150.15 2.57 C-159.12 0.89, -166.78 -2.16, -173.39 -6.64 M-150.15 2.57 C-157.2 -0.97, -163.55 -4.11, -173.39 -6.64" stroke="#1e1e1e" stroke-width="2" fill="none"></path></g></g><mask></mask><g transform="translate(296.5 170) rotate(0 70.99992370605469 25)"><text x="0" y="0" font-family="Virgil, Segoe UI Emoji" font-size="20px" fill="#1e1e1e" text-anchor="start" style="white-space: pre;" direction="ltr" dominant-baseline="text-before-edge">game contract</text><text x="0" y="25" font-family="Virgil, Segoe UI Emoji" font-size="20px" fill="#1e1e1e" text-anchor="start" style="white-space: pre;" direction="ltr" dominant-baseline="text-before-edge"> creation</text></g><g stroke-linecap="round"><g transform="translate(583.2204983421389 358) rotate(0 -39.36024917106943 83.00000000000003)"><path d="M-0.87 -0.29 C-14.22 27.63, -66.36 139.02, -79.43 166.71 M0.88 -1.49 C-12.15 26.15, -63.55 136.87, -77.1 164.96" stroke="#1e1e1e" stroke-width="2" fill="none"></path></g><g transform="translate(583.2204983421389 358) rotate(0 -39.36024917106943 83.00000000000003)"><path d="M-74.8 140.06 C-76.28 147.78, -75.44 156.9, -77.1 164.96 M-74.8 140.06 C-75.2 147.95, -75.1 155.03, -77.1 164.96" stroke="#1e1e1e" stroke-width="2" fill="none"></path></g><g transform="translate(583.2204983421389 358) rotate(0 -39.36024917106943 83.00000000000003)"><path d="M-59.34 147.36 C-66.32 152.36, -71.01 158.86, -77.1 164.96 M-59.34 147.36 C-64.19 153.02, -68.52 158.01, -77.1 164.96" stroke="#1e1e1e" stroke-width="2" fill="none"></path></g></g><mask></mask><g transform="translate(414.5 407) rotate(0 64.65991973876953 37.5)"><text x="0" y="0" font-family="Virgil, Segoe UI Emoji" font-size="20px" fill="#1e1e1e" text-anchor="start" style="white-space: pre;" direction="ltr" dominant-baseline="text-before-edge">provide users</text><text x="0" y="25" font-family="Virgil, Segoe UI Emoji" font-size="20px" fill="#1e1e1e" text-anchor="start" style="white-space: pre;" direction="ltr" dominant-baseline="text-before-edge">with their </text><text x="0" y="50" font-family="Virgil, Segoe UI Emoji" font-size="20px" fill="#1e1e1e" text-anchor="start" style="white-space: pre;" direction="ltr" dominant-baseline="text-before-edge">hands</text></g><g stroke-linecap="round"><g transform="translate(356.5 542) rotate(0 -84.5 -133)"><path d="M-0.87 -1.16 C-29.36 -45.51, -142.01 -221.84, -169.87 -266.03 M0.87 0.85 C-27.33 -43.3, -139.42 -220.18, -167.61 -264.5" stroke="#1e1e1e" stroke-width="2" fill="none"></path></g><g transform="translate(356.5 542) rotate(0 -84.5 -133)"><path d="M-147.8 -249.25 C-157.43 -256.76, -163.23 -259.61, -167.61 -264.5 M-147.8 -249.25 C-153.18 -254.63, -158.46 -256.94, -167.61 -264.5" stroke="#1e1e1e" stroke-width="2" fill="none"></path></g><g transform="translate(356.5 542) rotate(0 -84.5 -133)"><path d="M-162.24 -240.08 C-166.27 -251.05, -166.46 -257.45, -167.61 -264.5 M-162.24 -240.08 C-163.58 -247.91, -164.84 -252.77, -167.61 -264.5" stroke="#1e1e1e" stroke-width="2" fill="none"></path></g></g><mask></mask><g transform="translate(126.5 408) rotate(0 76.79991149902344 25)"><text x="0" y="0" font-family="Virgil, Segoe UI Emoji" font-size="20px" fill="#1e1e1e" text-anchor="start" style="white-space: pre;" direction="ltr" dominant-baseline="text-before-edge">player actions</text><text x="0" y="25" font-family="Virgil, Segoe UI Emoji" font-size="20px" fill="#1e1e1e" text-anchor="start" style="white-space: pre;" direction="ltr" dominant-baseline="text-before-edge">raise, fold, etc.</text></g><g stroke-linecap="round"><g transform="translate(257.5 137) rotate(0 106 7)"><path d="M-1.08 0.07 C34.22 2.11, 176.09 10.41, 211.54 12.89 M0.56 -0.94 C35.68 1.15, 175.34 11.5, 210.35 13.84" stroke="#1e1e1e" stroke-width="2" fill="none"></path></g><g transform="translate(257.5 137) rotate(0 106 7)"><path d="M186.31 20.71 C193.07 18.25, 197.79 16.43, 210.35 13.84 M186.31 20.71 C195.59 18.36, 205.01 16.12, 210.35 13.84" stroke="#1e1e1e" stroke-width="2" fill="none"></path></g><g transform="translate(257.5 137) rotate(0 106 7)"><path d="M187.52 3.65 C194.03 5.92, 198.42 8.85, 210.35 13.84 M187.52 3.65 C196.34 7.78, 205.3 12.03, 210.35 13.84" stroke="#1e1e1e" stroke-width="2" fill="none"></path></g></g><mask></mask><g transform="translate(301.5 105) rotate(0 57.34992980957031 25)"><text x="0" y="0" font-family="Virgil, Segoe UI Emoji" font-size="20px" fill="#1e1e1e" text-anchor="start" style="white-space: pre;" direction="ltr" dominant-baseline="text-before-edge">game state</text><text x="0" y="25" font-family="Virgil, Segoe UI Emoji" font-size="20px" fill="#1e1e1e" text-anchor="start" style="white-space: pre;" direction="ltr" dominant-baseline="text-before-edge"></text></g><g stroke-linecap="round"><g transform="translate(467.5 164) rotate(0 -115.5 -7)"><path d="M-0.87 -0.25 C-39.27 -2.28, -192.04 -10.71, -230.24 -13.08 M0.88 -1.43 C-37.63 -3.7, -192.25 -12.72, -230.79 -14.72" stroke="#1e1e1e" stroke-width="2" fill="none"></path></g><g transform="translate(467.5 164) rotate(0 -115.5 -7)"><path d="M-206.86 -21.95 C-214.85 -18.59, -220.4 -16.1, -230.79 -14.72 M-206.86 -21.95 C-213.04 -19.6, -218.76 -18.16, -230.79 -14.72" stroke="#1e1e1e" stroke-width="2" fill="none"></path></g><g transform="translate(467.5 164) rotate(0 -115.5 -7)"><path d="M-207.81 -4.88 C-215.37 -6.87, -220.63 -9.73, -230.79 -14.72 M-207.81 -4.88 C-213.63 -6.95, -219.1 -9.93, -230.79 -14.72" stroke="#1e1e1e" stroke-width="2" fill="none"></path></g></g><mask></mask></svg>